<svg width="159" height="184" viewBox="0 0 159 184" fill="none" xmlns="http://www.w3.org/2000/svg">
<path d="M3.17246 0C2.54502 0 1.93162 0.186049 1.40992 0.534633C0.888222 0.883217 0.48155 1.37866 0.241438 1.95833C0.00132521 2.538 -0.0614326 3.17588 0.0609757 3.79126C0.183384 4.40663 0.485537 4.97189 0.929207 5.41555C1.37288 5.85921 1.93811 6.16136 2.5535 6.28377C3.16888 6.40617 3.80683 6.34335 4.38652 6.10324C4.9662 5.86314 5.46161 5.4565 5.8102 4.93481C6.15879 4.41312 6.34488 3.7998 6.34488 3.17236C6.34488 2.331 6.01066 1.52408 5.41572 0.929145C4.82077 0.334212 4.01384 0 3.17246 0Z" fill="#313131"/>
<path d="M3.17246 25.3793C2.54502 25.3793 1.93162 25.5654 1.40992 25.914C0.888222 26.2626 0.48155 26.758 0.241438 27.3377C0.00132521 27.9173 -0.0614326 28.5552 0.0609757 29.1706C0.183384 29.786 0.485537 30.3512 0.929207 30.7949C1.37288 31.2385 1.93811 31.5407 2.5535 31.6631C3.16888 31.7855 3.80683 31.7227 4.38652 31.4826C4.9662 31.2425 5.46161 30.8358 5.8102 30.3141C6.15879 29.7925 6.34488 29.1791 6.34488 28.5517C6.34488 27.7103 6.01066 26.9034 5.41572 26.3085C4.82077 25.7135 4.01384 25.3793 3.17246 25.3793Z" fill="#313131"/>
<path d="M3.17246 50.7586C2.54502 50.7586 1.93162 50.9447 1.40992 51.2933C0.888222 51.6419 0.48155 52.1373 0.241438 52.717C0.00132521 53.2967 -0.0614326 53.9346 0.0609757 54.55C0.183384 55.1654 0.485537 55.7307 0.929207 56.1744C1.37288 56.618 1.93811 56.9202 2.5535 57.0426C3.16888 57.165 3.80683 57.1022 4.38652 56.8621C4.9662 56.622 5.46161 56.2153 5.8102 55.6936C6.15879 55.1719 6.34488 54.5586 6.34488 53.9311C6.34488 53.0897 6.01066 52.2827 5.41572 51.6878C4.82077 51.0928 4.01384 50.7586 3.17246 50.7586Z" fill="#313131"/>
<path d="M3.17246 76.1379C2.54502 76.1379 1.93162 76.324 1.40992 76.6726C0.888222 77.0212 0.48155 77.5166 0.241438 78.0963C0.00132521 78.6759 -0.0614326 79.3138 0.0609757 79.9292C0.183384 80.5446 0.485537 81.1098 0.929207 81.5535C1.37288 81.9972 1.93811 82.2993 2.5535 82.4217C3.16888 82.5441 3.80683 82.4813 4.38652 82.2412C4.9662 82.0011 5.46161 81.5944 5.8102 81.0727C6.15879 80.5511 6.34488 79.9377 6.34488 79.3103C6.34488 78.4689 6.01066 77.662 5.41572 77.0671C4.82077 76.4722 4.01384 76.1379 3.17246 76.1379Z" fill="#313131"/>
<path d="M3.17246 101.517C2.54502 101.517 1.93162 101.703 1.40992 102.052C0.888222 102.4 0.48155 102.896 0.241438 103.476C0.00132521 104.055 -0.0614326 104.693 0.0609757 105.308C0.183384 105.924 0.485537 106.489 0.929207 106.933C1.37288 107.376 1.93811 107.679 2.5535 107.801C3.16888 107.923 3.80683 107.861 4.38652 107.62C4.9662 107.38 5.46161 106.974 5.8102 106.452C6.15879 105.93 6.34488 105.317 6.34488 104.69C6.34488 103.848 6.01066 103.041 5.41572 102.446C4.82077 101.851 4.01384 101.517 3.17246 101.517Z" fill="#313131"/>
<path d="M3.17246 126.897C2.54502 126.897 1.93162 127.083 1.40992 127.431C0.888222 127.78 0.48155 128.275 0.241438 128.855C0.00132521 129.435 -0.0614326 130.073 0.0609757 130.688C0.183384 131.303 0.485537 131.869 0.929207 132.312C1.37288 132.756 1.93811 133.058 2.5535 133.181C3.16888 133.303 3.80683 133.24 4.38652 133C4.9662 132.76 5.46161 132.353 5.8102 131.832C6.15879 131.31 6.34488 130.696 6.34488 130.069C6.34488 129.228 6.01066 128.421 5.41572 127.826C4.82077 127.231 4.01384 126.897 3.17246 126.897Z" fill="#313131"/>
<path d="M3.17246 152.276C2.54502 152.276 1.93162 152.462 1.40992 152.811C0.888222 153.159 0.48155 153.655 0.241438 154.234C0.00132521 154.814 -0.0614326 155.452 0.0609757 156.067C0.183384 156.683 0.485537 157.248 0.929207 157.691C1.37288 158.135 1.93811 158.437 2.5535 158.56C3.16888 158.682 3.80683 158.619 4.38652 158.379C4.9662 158.139 5.46161 157.732 5.8102 157.211C6.15879 156.689 6.34488 156.076 6.34488 155.448C6.34488 154.607 6.01066 153.8 5.41572 153.205C4.82077 152.61 4.01384 152.276 3.17246 152.276Z" fill="#313131"/>
<path d="M3.17246 177.655C2.54502 177.655 1.93162 177.841 1.40992 178.19C0.888222 178.538 0.48155 179.034 0.241438 179.614C0.00132521 180.193 -0.0614326 180.831 0.0609757 181.447C0.183384 182.062 0.485537 182.627 0.929207 183.071C1.37288 183.514 1.93811 183.817 2.5535 183.939C3.16888 184.061 3.80683 183.999 4.38652 183.759C4.9662 183.518 5.46161 183.112 5.8102 182.59C6.15879 182.068 6.34488 181.455 6.34488 180.828C6.34488 179.986 6.01066 179.179 5.41572 178.584C4.82077 177.989 4.01384 177.655 3.17246 177.655Z" fill="#313131"/>
<path d="M28.5518 0C27.9243 0 27.3109 0.186049 26.7892 0.534633C26.2675 0.883217 25.8609 1.37866 25.6207 1.95833C25.3806 2.538 25.3179 3.17588 25.4403 3.79126C25.5627 4.40663 25.8648 4.97189 26.3085 5.41555C26.7522 5.85921 27.3174 6.16136 27.9328 6.28377C28.5482 6.40617 29.1861 6.34335 29.7658 6.10324C30.3455 5.86314 30.8409 5.4565 31.1895 4.93481C31.5381 4.41312 31.7242 3.7998 31.7242 3.17236C31.7242 2.331 31.39 1.52408 30.795 0.929145C30.2001 0.334212 29.3931 0 28.5518 0Z" fill="#313131"/>
<path d="M28.5518 25.3793C27.9243 25.3793 27.3109 25.5654 26.7892 25.914C26.2675 26.2626 25.8609 26.758 25.6207 27.3377C25.3806 27.9173 25.3179 28.5552 25.4403 29.1706C25.5627 29.786 25.8648 30.3512 26.3085 30.7949C26.7522 31.2385 27.3174 31.5407 27.9328 31.6631C28.5482 31.7855 29.1861 31.7227 29.7658 31.4826C30.3455 31.2425 30.8409 30.8358 31.1895 30.3141C31.5381 29.7925 31.7242 29.1791 31.7242 28.5517C31.7242 27.7103 31.39 26.9034 30.795 26.3085C30.2001 25.7135 29.3931 25.3793 28.5518 25.3793Z" fill="#313131"/>
<path d="M28.5518 50.7586C27.9243 50.7586 27.3109 50.9447 26.7892 51.2933C26.2675 51.6419 25.8609 52.1373 25.6207 52.717C25.3806 53.2967 25.3179 53.9346 25.4403 54.55C25.5627 55.1654 25.8648 55.7307 26.3085 56.1744C26.7522 56.618 27.3174 56.9202 27.9328 57.0426C28.5482 57.165 29.1861 57.1022 29.7658 56.8621C30.3455 56.622 30.8409 56.2153 31.1895 55.6936C31.5381 55.1719 31.7242 54.5586 31.7242 53.9311C31.7242 53.0897 31.39 52.2827 30.795 51.6878C30.2001 51.0928 29.3931 50.7586 28.5518 50.7586Z" fill="#313131"/>
<path d="M28.5518 76.1379C27.9243 76.1379 27.3109 76.324 26.7892 76.6726C26.2675 77.0212 25.8609 77.5166 25.6207 78.0963C25.3806 78.6759 25.3179 79.3138 25.4403 79.9292C25.5627 80.5446 25.8648 81.1098 26.3085 81.5535C26.7522 81.9972 27.3174 82.2993 27.9328 82.4217C28.5482 82.5441 29.1861 82.4813 29.7658 82.2412C30.3455 82.0011 30.8409 81.5944 31.1895 81.0727C31.5381 80.5511 31.7242 79.9377 31.7242 79.3103C31.7242 78.4689 31.39 77.662 30.795 77.0671C30.2001 76.4722 29.3931 76.1379 28.5518 76.1379Z" fill="#313131"/>
<path d="M28.5518 101.517C27.9243 101.517 27.3109 101.703 26.7892 102.052C26.2675 102.4 25.8609 102.896 25.6207 103.476C25.3806 104.055 25.3179 104.693 25.4403 105.308C25.5627 105.924 25.8648 106.489 26.3085 106.933C26.7522 107.376 27.3174 107.679 27.9328 107.801C28.5482 107.923 29.1861 107.861 29.7658 107.62C30.3455 107.38 30.8409 106.974 31.1895 106.452C31.5381 105.93 31.7242 105.317 31.7242 104.69C31.7242 103.848 31.39 103.041 30.795 102.446C30.2001 101.851 29.3931 101.517 28.5518 101.517Z" fill="#313131"/>
<path d="M28.5518 126.897C27.9243 126.897 27.3109 127.083 26.7892 127.431C26.2675 127.78 25.8609 128.275 25.6207 128.855C25.3806 129.435 25.3179 130.073 25.4403 130.688C25.5627 131.303 25.8648 131.869 26.3085 132.312C26.7522 132.756 27.3174 133.058 27.9328 133.181C28.5482 133.303 29.1861 133.24 29.7658 133C30.3455 132.76 30.8409 132.353 31.1895 131.832C31.5381 131.31 31.7242 130.696 31.7242 130.069C31.7242 129.228 31.39 128.421 30.795 127.826C30.2001 127.231 29.3931 126.897 28.5518 126.897Z" fill="#313131"/>
<path d="M28.5518 152.276C27.9243 152.276 27.3109 152.462 26.7892 152.811C26.2675 153.159 25.8609 153.655 25.6207 154.234C25.3806 154.814 25.3179 155.452 25.4403 156.067C25.5627 156.683 25.8648 157.248 26.3085 157.691C26.7522 158.135 27.3174 158.437 27.9328 158.56C28.5482 158.682 29.1861 158.619 29.7658 158.379C30.3455 158.139 30.8409 157.732 31.1895 157.211C31.5381 156.689 31.7242 156.076 31.7242 155.448C31.7242 154.607 31.39 153.8 30.795 153.205C30.2001 152.61 29.3931 152.276 28.5518 152.276Z" fill="#313131"/>
<path d="M28.5518 177.655C27.9243 177.655 27.3109 177.841 26.7892 178.19C26.2675 178.538 25.8609 179.034 25.6207 179.614C25.3806 180.193 25.3179 180.831 25.4403 181.447C25.5627 182.062 25.8648 182.627 26.3085 183.071C26.7522 183.514 27.3174 183.817 27.9328 183.939C28.5482 184.061 29.1861 183.999 29.7658 183.759C30.3455 183.518 30.8409 183.112 31.1895 182.59C31.5381 182.068 31.7242 181.455 31.7242 180.828C31.7242 179.986 31.39 179.179 30.795 178.584C30.2001 177.989 29.3931 177.655 28.5518 177.655Z" fill="#313131"/>
<path d="M53.9311 0C53.3036 0 52.6902 0.186049 52.1685 0.534633C51.6468 0.883217 51.2402 1.37866 51 1.95833C50.7599 2.538 50.6972 3.17588 50.8196 3.79126C50.942 4.40663 51.2441 4.97189 51.6878 5.41555C52.1315 5.85921 52.6967 6.16136 53.3121 6.28377C53.9275 6.40617 54.5654 6.34335 55.1451 6.10324C55.7248 5.86314 56.2202 5.4565 56.5688 4.93481C56.9174 4.41312 57.1035 3.7998 57.1035 3.17236C57.1035 2.331 56.7693 1.52408 56.1743 0.929145C55.5794 0.334212 54.7724 0 53.9311 0Z" fill="#313131"/>
<path d="M53.9311 25.3793C53.3036 25.3793 52.6902 25.5654 52.1685 25.914C51.6468 26.2626 51.2402 26.758 51 27.3377C50.7599 27.9173 50.6972 28.5552 50.8196 29.1706C50.942 29.786 51.2441 30.3512 51.6878 30.7949C52.1315 31.2385 52.6967 31.5407 53.3121 31.6631C53.9275 31.7855 54.5654 31.7227 55.1451 31.4826C55.7248 31.2425 56.2202 30.8358 56.5688 30.3141C56.9174 29.7925 57.1035 29.1791 57.1035 28.5517C57.1035 27.7103 56.7693 26.9034 56.1743 26.3085C55.5794 25.7135 54.7724 25.3793 53.9311 25.3793Z" fill="#313131"/>
<path d="M53.9311 50.7586C53.3036 50.7586 52.6902 50.9447 52.1685 51.2933C51.6468 51.6419 51.2402 52.1373 51 52.717C50.7599 53.2967 50.6972 53.9346 50.8196 54.55C50.942 55.1654 51.2441 55.7307 51.6878 56.1744C52.1315 56.618 52.6967 56.9202 53.3121 57.0426C53.9275 57.165 54.5654 57.1022 55.1451 56.8621C55.7248 56.622 56.2202 56.2153 56.5688 55.6936C56.9174 55.1719 57.1035 54.5586 57.1035 53.9311C57.1035 53.0897 56.7693 52.2827 56.1743 51.6878C55.5794 51.0928 54.7724 50.7586 53.9311 50.7586Z" fill="#313131"/>
<path d="M53.9311 76.1379C53.3036 76.1379 52.6902 76.324 52.1685 76.6726C51.6468 77.0212 51.2402 77.5166 51 78.0963C50.7599 78.6759 50.6972 79.3138 50.8196 79.9292C50.942 80.5446 51.2441 81.1098 51.6878 81.5535C52.1315 81.9972 52.6967 82.2993 53.3121 82.4217C53.9275 82.5441 54.5654 82.4813 55.1451 82.2412C55.7248 82.0011 56.2202 81.5944 56.5688 81.0727C56.9174 80.5511 57.1035 79.9377 57.1035 79.3103C57.1035 78.4689 56.7693 77.662 56.1743 77.0671C55.5794 76.4722 54.7724 76.1379 53.9311 76.1379Z" fill="#313131"/>
<path d="M53.9311 101.517C53.3036 101.517 52.6902 101.703 52.1685 102.052C51.6468 102.4 51.2402 102.896 51 103.476C50.7599 104.055 50.6972 104.693 50.8196 105.308C50.942 105.924 51.2441 106.489 51.6878 106.933C52.1315 107.376 52.6967 107.679 53.3121 107.801C53.9275 107.923 54.5654 107.861 55.1451 107.62C55.7248 107.38 56.2202 106.974 56.5688 106.452C56.9174 105.93 57.1035 105.317 57.1035 104.69C57.1035 103.848 56.7693 103.041 56.1743 102.446C55.5794 101.851 54.7724 101.517 53.9311 101.517Z" fill="#313131"/>
<path d="M53.9311 126.897C53.3036 126.897 52.6902 127.083 52.1685 127.431C51.6468 127.78 51.2402 128.275 51 128.855C50.7599 129.435 50.6972 130.073 50.8196 130.688C50.942 131.303 51.2441 131.869 51.6878 132.312C52.1315 132.756 52.6967 133.058 53.3121 133.181C53.9275 133.303 54.5654 133.24 55.1451 133C55.7248 132.76 56.2202 132.353 56.5688 131.832C56.9174 131.31 57.1035 130.696 57.1035 130.069C57.1035 129.228 56.7693 128.421 56.1743 127.826C55.5794 127.231 54.7724 126.897 53.9311 126.897Z" fill="#313131"/>
<path d="M53.9311 152.276C53.3036 152.276 52.6902 152.462 52.1685 152.811C51.6468 153.159 51.2402 153.655 51 154.234C50.7599 154.814 50.6972 155.452 50.8196 156.067C50.942 156.683 51.2441 157.248 51.6878 157.691C52.1315 158.135 52.6967 158.437 53.3121 158.56C53.9275 158.682 54.5654 158.619 55.1451 158.379C55.7248 158.139 56.2202 157.732 56.5688 157.211C56.9174 156.689 57.1035 156.076 57.1035 155.448C57.1035 154.607 56.7693 153.8 56.1743 153.205C55.5794 152.61 54.7724 152.276 53.9311 152.276Z" fill="#313131"/>
<path d="M53.9311 177.655C53.3036 177.655 52.6902 177.841 52.1685 178.19C51.6468 178.538 51.2402 179.034 51 179.614C50.7599 180.193 50.6972 180.831 50.8196 181.447C50.942 182.062 51.2441 182.627 51.6878 183.071C52.1315 183.514 52.6967 183.817 53.3121 183.939C53.9275 184.061 54.5654 183.999 55.1451 183.759C55.7248 183.518 56.2202 183.112 56.5688 182.59C56.9174 182.068 57.1035 181.455 57.1035 180.828C57.1035 179.986 56.7693 179.179 56.1743 178.584C55.5794 177.989 54.7724 177.655 53.9311 177.655Z" fill="#313131"/>
<path d="M79.3104 0C78.683 0 78.0696 0.186049 77.5479 0.534633C77.0262 0.883217 76.6195 1.37866 76.3794 1.95833C76.1393 2.538 76.0765 3.17588 76.1989 3.79126C76.3213 4.40663 76.6235 4.97189 77.0671 5.41555C77.5108 5.85921 78.076 6.16136 78.6914 6.28377C79.3068 6.40617 79.9448 6.34335 80.5245 6.10324C81.1041 5.86314 81.5996 5.4565 81.9481 4.93481C82.2967 4.41312 82.4828 3.7998 82.4828 3.17236C82.4828 2.331 82.1486 1.52408 81.5537 0.929145C80.9587 0.334212 80.1518 0 79.3104 0Z" fill="#313131"/>
<path d="M79.3104 25.3793C78.683 25.3793 78.0696 25.5654 77.5479 25.914C77.0262 26.2626 76.6195 26.758 76.3794 27.3377C76.1393 27.9173 76.0765 28.5552 76.1989 29.1706C76.3213 29.786 76.6235 30.3512 77.0671 30.7949C77.5108 31.2385 78.076 31.5407 78.6914 31.6631C79.3068 31.7855 79.9448 31.7227 80.5245 31.4826C81.1041 31.2425 81.5996 30.8358 81.9481 30.3141C82.2967 29.7925 82.4828 29.1791 82.4828 28.5517C82.4828 27.7103 82.1486 26.9034 81.5537 26.3085C80.9587 25.7135 80.1518 25.3793 79.3104 25.3793Z" fill="#313131"/>
<path d="M79.3104 50.7586C78.683 50.7586 78.0696 50.9447 77.5479 51.2933C77.0262 51.6419 76.6195 52.1373 76.3794 52.717C76.1393 53.2967 76.0765 53.9346 76.1989 54.55C76.3213 55.1654 76.6235 55.7307 77.0671 56.1744C77.5108 56.618 78.076 56.9202 78.6914 57.0426C79.3068 57.165 79.9448 57.1022 80.5245 56.8621C81.1041 56.622 81.5996 56.2153 81.9481 55.6936C82.2967 55.1719 82.4828 54.5586 82.4828 53.9311C82.4828 53.0897 82.1486 52.2827 81.5537 51.6878C80.9587 51.0928 80.1518 50.7586 79.3104 50.7586Z" fill="#313131"/>
<path d="M79.3104 76.1379C78.683 76.1379 78.0696 76.324 77.5479 76.6726C77.0262 77.0212 76.6195 77.5166 76.3794 78.0963C76.1393 78.6759 76.0765 79.3138 76.1989 79.9292C76.3213 80.5446 76.6235 81.1098 77.0671 81.5535C77.5108 81.9972 78.076 82.2993 78.6914 82.4217C79.3068 82.5441 79.9448 82.4813 80.5245 82.2412C81.1041 82.0011 81.5996 81.5944 81.9481 81.0727C82.2967 80.5511 82.4828 79.9377 82.4828 79.3103C82.4828 78.4689 82.1486 77.662 81.5537 77.0671C80.9587 76.4722 80.1518 76.1379 79.3104 76.1379Z" fill="#313131"/>
<path d="M79.3104 101.517C78.683 101.517 78.0696 101.703 77.5479 102.052C77.0262 102.4 76.6195 102.896 76.3794 103.476C76.1393 104.055 76.0765 104.693 76.1989 105.308C76.3213 105.924 76.6235 106.489 77.0671 106.933C77.5108 107.376 78.076 107.679 78.6914 107.801C79.3068 107.923 79.9448 107.861 80.5245 107.62C81.1041 107.38 81.5996 106.974 81.9481 106.452C82.2967 105.93 82.4828 105.317 82.4828 104.69C82.4828 103.848 82.1486 103.041 81.5537 102.446C80.9587 101.851 80.1518 101.517 79.3104 101.517Z" fill="#313131"/>
<path d="M79.3104 126.897C78.683 126.897 78.0696 127.083 77.5479 127.431C77.0262 127.78 76.6195 128.275 76.3794 128.855C76.1393 129.435 76.0765 130.073 76.1989 130.688C76.3213 131.303 76.6235 131.869 77.0671 132.312C77.5108 132.756 78.076 133.058 78.6914 133.181C79.3068 133.303 79.9448 133.24 80.5245 133C81.1041 132.76 81.5996 132.353 81.9481 131.832C82.2967 131.31 82.4828 130.696 82.4828 130.069C82.4828 129.228 82.1486 128.421 81.5537 127.826C80.9587 127.231 80.1518 126.897 79.3104 126.897Z" fill="#313131"/>
<path d="M79.3104 152.276C78.683 152.276 78.0696 152.462 77.5479 152.811C77.0262 153.159 76.6195 153.655 76.3794 154.234C76.1393 154.814 76.0765 155.452 76.1989 156.067C76.3213 156.683 76.6235 157.248 77.0671 157.691C77.5108 158.135 78.076 158.437 78.6914 158.56C79.3068 158.682 79.9448 158.619 80.5245 158.379C81.1041 158.139 81.5996 157.732 81.9481 157.211C82.2967 156.689 82.4828 156.076 82.4828 155.448C82.4828 154.607 82.1486 153.8 81.5537 153.205C80.9587 152.61 80.1518 152.276 79.3104 152.276Z" fill="#313131"/>
<path d="M79.3104 177.655C78.683 177.655 78.0696 177.841 77.5479 178.19C77.0262 178.538 76.6195 179.034 76.3794 179.614C76.1393 180.193 76.0765 180.831 76.1989 181.447C76.3213 182.062 76.6235 182.627 77.0671 183.071C77.5108 183.514 78.076 183.817 78.6914 183.939C79.3068 184.061 79.9448 183.999 80.5245 183.759C81.1041 183.518 81.5996 183.112 81.9481 182.59C82.2967 182.068 82.4828 181.455 82.4828 180.828C82.4828 179.986 82.1486 179.179 81.5537 178.584C80.9587 177.989 80.1518 177.655 79.3104 177.655Z" fill="#313131"/>
<path d="M104.69 0C104.062 0 103.449 0.186049 102.927 0.534633C102.405 0.883217 101.999 1.37866 101.759 1.95833C101.519 2.538 101.456 3.17588 101.578 3.79126C101.701 4.40663 102.003 4.97189 102.446 5.41555C102.89 5.85921 103.455 6.16136 104.071 6.28377C104.686 6.40617 105.324 6.34335 105.904 6.10324C106.483 5.86314 106.979 5.4565 107.327 4.93481C107.676 4.41312 107.862 3.7998 107.862 3.17236C107.862 2.331 107.528 1.52408 106.933 0.929145C106.338 0.334212 105.531 0 104.69 0Z" fill="#313131"/>
<path d="M104.69 25.3793C104.062 25.3793 103.449 25.5654 102.927 25.914C102.405 26.2626 101.999 26.758 101.759 27.3377C101.519 27.9173 101.456 28.5552 101.578 29.1706C101.701 29.786 102.003 30.3512 102.446 30.7949C102.89 31.2385 103.455 31.5407 104.071 31.6631C104.686 31.7855 105.324 31.7227 105.904 31.4826C106.483 31.2425 106.979 30.8358 107.327 30.3141C107.676 29.7925 107.862 29.1791 107.862 28.5517C107.862 27.7103 107.528 26.9034 106.933 26.3085C106.338 25.7135 105.531 25.3793 104.69 25.3793Z" fill="#313131"/>
<path d="M104.69 50.7586C104.062 50.7586 103.449 50.9447 102.927 51.2933C102.405 51.6419 101.999 52.1373 101.759 52.717C101.519 53.2967 101.456 53.9346 101.578 54.55C101.701 55.1654 102.003 55.7307 102.446 56.1744C102.89 56.618 103.455 56.9202 104.071 57.0426C104.686 57.165 105.324 57.1022 105.904 56.8621C106.483 56.622 106.979 56.2153 107.327 55.6936C107.676 55.1719 107.862 54.5586 107.862 53.9311C107.862 53.0897 107.528 52.2827 106.933 51.6878C106.338 51.0928 105.531 50.7586 104.69 50.7586Z" fill="#313131"/>
<path d="M104.69 76.1379C104.062 76.1379 103.449 76.324 102.927 76.6726C102.405 77.0212 101.999 77.5166 101.759 78.0963C101.519 78.6759 101.456 79.3138 101.578 79.9292C101.701 80.5446 102.003 81.1098 102.446 81.5535C102.89 81.9972 103.455 82.2993 104.071 82.4217C104.686 82.5441 105.324 82.4813 105.904 82.2412C106.483 82.0011 106.979 81.5944 107.327 81.0727C107.676 80.5511 107.862 79.9377 107.862 79.3103C107.862 78.4689 107.528 77.662 106.933 77.0671C106.338 76.4722 105.531 76.1379 104.69 76.1379Z" fill="#313131"/>
<path d="M104.69 101.517C104.062 101.517 103.449 101.703 102.927 102.052C102.405 102.4 101.999 102.896 101.759 103.476C101.519 104.055 101.456 104.693 101.578 105.308C101.701 105.924 102.003 106.489 102.446 106.933C102.89 107.376 103.455 107.679 104.071 107.801C104.686 107.923 105.324 107.861 105.904 107.62C106.483 107.38 106.979 106.974 107.327 106.452C107.676 105.93 107.862 105.317 107.862 104.69C107.862 103.848 107.528 103.041 106.933 102.446C106.338 101.851 105.531 101.517 104.69 101.517Z" fill="#313131"/>
<path d="M104.69 126.897C104.062 126.897 103.449 127.083 102.927 127.431C102.405 127.78 101.999 128.275 101.759 128.855C101.519 129.435 101.456 130.073 101.578 130.688C101.701 131.303 102.003 131.869 102.446 132.312C102.89 132.756 103.455 133.058 104.071 133.181C104.686 133.303 105.324 133.24 105.904 133C106.483 132.76 106.979 132.353 107.327 131.832C107.676 131.31 107.862 130.696 107.862 130.069C107.862 129.228 107.528 128.421 106.933 127.826C106.338 127.231 105.531 126.897 104.69 126.897Z" fill="#313131"/>
<path d="M104.69 152.276C104.062 152.276 103.449 152.462 102.927 152.811C102.405 153.159 101.999 153.655 101.759 154.234C101.519 154.814 101.456 155.452 101.578 156.067C101.701 156.683 102.003 157.248 102.446 157.691C102.89 158.135 103.455 158.437 104.071 158.56C104.686 158.682 105.324 158.619 105.904 158.379C106.483 158.139 106.979 157.732 107.327 157.211C107.676 156.689 107.862 156.076 107.862 155.448C107.862 154.607 107.528 153.8 106.933 153.205C106.338 152.61 105.531 152.276 104.69 152.276Z" fill="#313131"/>
<path d="M104.69 177.655C104.062 177.655 103.449 177.841 102.927 178.19C102.405 178.538 101.999 179.034 101.759 179.614C101.519 180.193 101.456 180.831 101.578 181.447C101.701 182.062 102.003 182.627 102.446 183.071C102.89 183.514 103.455 183.817 104.071 183.939C104.686 184.061 105.324 183.999 105.904 183.759C106.483 183.518 106.979 183.112 107.327 182.59C107.676 182.068 107.862 181.455 107.862 180.828C107.862 179.986 107.528 179.179 106.933 178.584C106.338 177.989 105.531 177.655 104.69 177.655Z" fill="#313131"/>
<path d="M130.069 0C129.442 0 128.828 0.186049 128.306 0.534633C127.785 0.883217 127.378 1.37866 127.138 1.95833C126.898 2.538 126.835 3.17588 126.958 3.79126C127.08 4.40663 127.382 4.97189 127.826 5.41555C128.269 5.85921 128.835 6.16136 129.45 6.28377C130.065 6.40617 130.703 6.34335 131.283 6.10324C131.863 5.86314 132.358 5.4565 132.707 4.93481C133.055 4.41312 133.241 3.7998 133.241 3.17236C133.241 2.331 132.907 1.52408 132.312 0.929145C131.717 0.334212 130.91 0 130.069 0Z" fill="#313131"/>
<path d="M130.069 25.3793C129.442 25.3793 128.828 25.5654 128.306 25.914C127.785 26.2626 127.378 26.758 127.138 27.3377C126.898 27.9173 126.835 28.5552 126.958 29.1706C127.08 29.786 127.382 30.3512 127.826 30.7949C128.269 31.2385 128.835 31.5407 129.45 31.6631C130.065 31.7855 130.703 31.7227 131.283 31.4826C131.863 31.2425 132.358 30.8358 132.707 30.3141C133.055 29.7925 133.241 29.1791 133.241 28.5517C133.241 27.7103 132.907 26.9034 132.312 26.3085C131.717 25.7135 130.91 25.3793 130.069 25.3793Z" fill="#313131"/>
<path d="M130.069 50.7586C129.442 50.7586 128.828 50.9447 128.306 51.2933C127.785 51.6419 127.378 52.1373 127.138 52.717C126.898 53.2967 126.835 53.9346 126.958 54.55C127.08 55.1654 127.382 55.7307 127.826 56.1744C128.269 56.618 128.835 56.9202 129.45 57.0426C130.065 57.165 130.703 57.1022 131.283 56.8621C131.863 56.622 132.358 56.2153 132.707 55.6936C133.055 55.1719 133.241 54.5586 133.241 53.9311C133.241 53.0897 132.907 52.2827 132.312 51.6878C131.717 51.0928 130.91 50.7586 130.069 50.7586Z" fill="#313131"/>
<path d="M130.069 76.1379C129.442 76.1379 128.828 76.324 128.306 76.6726C127.785 77.0212 127.378 77.5166 127.138 78.0963C126.898 78.6759 126.835 79.3138 126.958 79.9292C127.08 80.5446 127.382 81.1098 127.826 81.5535C128.269 81.9972 128.835 82.2993 129.45 82.4217C130.065 82.5441 130.703 82.4813 131.283 82.2412C131.863 82.0011 132.358 81.5944 132.707 81.0727C133.055 80.5511 133.241 79.9377 133.241 79.3103C133.241 78.4689 132.907 77.662 132.312 77.0671C131.717 76.4722 130.91 76.1379 130.069 76.1379Z" fill="#313131"/>
<path d="M130.069 101.517C129.442 101.517 128.828 101.703 128.306 102.052C127.785 102.4 127.378 102.896 127.138 103.476C126.898 104.055 126.835 104.693 126.958 105.308C127.08 105.924 127.382 106.489 127.826 106.933C128.269 107.376 128.835 107.679 129.45 107.801C130.065 107.923 130.703 107.861 131.283 107.62C131.863 107.38 132.358 106.974 132.707 106.452C133.055 105.93 133.241 105.317 133.241 104.69C133.241 103.848 132.907 103.041 132.312 102.446C131.717 101.851 130.91 101.517 130.069 101.517Z" fill="#313131"/>
<path d="M130.069 126.897C129.442 126.897 128.828 127.083 128.306 127.431C127.785 127.78 127.378 128.275 127.138 128.855C126.898 129.435 126.835 130.073 126.958 130.688C127.08 131.303 127.382 131.869 127.826 132.312C128.269 132.756 128.835 133.058 129.45 133.181C130.065 133.303 130.703 133.24 131.283 133C131.863 132.76 132.358 132.353 132.707 131.832C133.055 131.31 133.241 130.696 133.241 130.069C133.241 129.228 132.907 128.421 132.312 127.826C131.717 127.231 130.91 126.897 130.069 126.897Z" fill="#313131"/>
<path d="M130.069 152.276C129.442 152.276 128.828 152.462 128.306 152.811C127.785 153.159 127.378 153.655 127.138 154.234C126.898 154.814 126.835 155.452 126.958 156.067C127.08 156.683 127.382 157.248 127.826 157.691C128.269 158.135 128.835 158.437 129.45 158.56C130.065 158.682 130.703 158.619 131.283 158.379C131.863 158.139 132.358 157.732 132.707 157.211C133.055 156.689 133.241 156.076 133.241 155.448C133.241 154.607 132.907 153.8 132.312 153.205C131.717 152.61 130.91 152.276 130.069 152.276Z" fill="#313131"/>
<path d="M130.069 177.655C129.442 177.655 128.828 177.841 128.306 178.19C127.785 178.538 127.378 179.034 127.138 179.614C126.898 180.193 126.835 180.831 126.958 181.447C127.08 182.062 127.382 182.627 127.826 183.071C128.269 183.514 128.835 183.817 129.45 183.939C130.065 184.061 130.703 183.999 131.283 183.759C131.863 183.518 132.358 183.112 132.707 182.59C133.055 182.068 133.241 181.455 133.241 180.828C133.241 179.986 132.907 179.179 132.312 178.584C131.717 177.989 130.91 177.655 130.069 177.655Z" fill="#313131"/>
<path d="M155.448 0C154.821 0 154.208 0.186049 153.686 0.534633C153.164 0.883217 152.757 1.37866 152.517 1.95833C152.277 2.538 152.214 3.17588 152.337 3.79126C152.459 4.40663 152.761 4.97189 153.205 5.41555C153.649 5.85921 154.214 6.16136 154.829 6.28377C155.445 6.40617 156.083 6.34335 156.662 6.10324C157.242 5.86314 157.737 5.4565 158.086 4.93481C158.435 4.41312 158.621 3.7998 158.621 3.17236C158.621 2.331 158.287 1.52408 157.692 0.929145C157.097 0.334212 156.29 0 155.448 0Z" fill="#313131"/>
<path d="M155.448 25.3793C154.821 25.3793 154.208 25.5654 153.686 25.914C153.164 26.2626 152.757 26.758 152.517 27.3377C152.277 27.9173 152.214 28.5552 152.337 29.1706C152.459 29.786 152.761 30.3512 153.205 30.7949C153.649 31.2385 154.214 31.5407 154.829 31.6631C155.445 31.7855 156.083 31.7227 156.662 31.4826C157.242 31.2425 157.737 30.8358 158.086 30.3141C158.435 29.7925 158.621 29.1791 158.621 28.5517C158.621 27.7103 158.287 26.9034 157.692 26.3085C157.097 25.7135 156.29 25.3793 155.448 25.3793Z" fill="#313131"/>
<path d="M155.448 50.7586C154.821 50.7586 154.208 50.9447 153.686 51.2933C153.164 51.6419 152.757 52.1373 152.517 52.717C152.277 53.2967 152.214 53.9346 152.337 54.55C152.459 55.1654 152.761 55.7307 153.205 56.1744C153.649 56.618 154.214 56.9202 154.829 57.0426C155.445 57.165 156.083 57.1022 156.662 56.8621C157.242 56.622 157.737 56.2153 158.086 55.6936C158.435 55.1719 158.621 54.5586 158.621 53.9311C158.621 53.0897 158.287 52.2827 157.692 51.6878C157.097 51.0928 156.29 50.7586 155.448 50.7586Z" fill="#313131"/>
<path d="M155.448 76.1379C154.821 76.1379 154.208 76.324 153.686 76.6726C153.164 77.0212 152.757 77.5166 152.517 78.0963C152.277 78.6759 152.214 79.3138 152.337 79.9292C152.459 80.5446 152.761 81.1098 153.205 81.5535C153.649 81.9972 154.214 82.2993 154.829 82.4217C155.445 82.5441 156.083 82.4813 156.662 82.2412C157.242 82.0011 157.737 81.5944 158.086 81.0727C158.435 80.5511 158.621 79.9377 158.621 79.3103C158.621 78.4689 158.287 77.662 157.692 77.0671C157.097 76.4722 156.29 76.1379 155.448 76.1379Z" fill="#313131"/>
<path d="M155.448 101.517C154.821 101.517 154.208 101.703 153.686 102.052C153.164 102.4 152.757 102.896 152.517 103.476C152.277 104.055 152.214 104.693 152.337 105.308C152.459 105.924 152.761 106.489 153.205 106.933C153.649 107.376 154.214 107.679 154.829 107.801C155.445 107.923 156.083 107.861 156.662 107.62C157.242 107.38 157.737 106.974 158.086 106.452C158.435 105.93 158.621 105.317 158.621 104.69C158.621 103.848 158.287 103.041 157.692 102.446C157.097 101.851 156.29 101.517 155.448 101.517Z" fill="#313131"/>
<path d="M155.448 126.897C154.821 126.897 154.208 127.083 153.686 127.431C153.164 127.78 152.757 128.275 152.517 128.855C152.277 129.435 152.214 130.073 152.337 130.688C152.459 131.303 152.761 131.869 153.205 132.312C153.649 132.756 154.214 133.058 154.829 133.181C155.445 133.303 156.083 133.24 156.662 133C157.242 132.76 157.737 132.353 158.086 131.832C158.435 131.31 158.621 130.696 158.621 130.069C158.621 129.228 158.287 128.421 157.692 127.826C157.097 127.231 156.29 126.897 155.448 126.897Z" fill="#313131"/>
<path d="M155.448 152.276C154.821 152.276 154.208 152.462 153.686 152.811C153.164 153.159 152.757 153.655 152.517 154.234C152.277 154.814 152.214 155.452 152.337 156.067C152.459 156.683 152.761 157.248 153.205 157.691C153.649 158.135 154.214 158.437 154.829 158.56C155.445 158.682 156.083 158.619 156.662 158.379C157.242 158.139 157.737 157.732 158.086 157.211C158.435 156.689 158.621 156.076 158.621 155.448C158.621 154.607 158.287 153.8 157.692 153.205C157.097 152.61 156.29 152.276 155.448 152.276Z" fill="#313131"/>
<path d="M155.448 177.655C154.821 177.655 154.208 177.841 153.686 178.19C153.164 178.538 152.757 179.034 152.517 179.614C152.277 180.193 152.214 180.831 152.337 181.447C152.459 182.062 152.761 182.627 153.205 183.071C153.649 183.514 154.214 183.817 154.829 183.939C155.445 184.061 156.083 183.999 156.662 183.759C157.242 183.518 157.737 183.112 158.086 182.59C158.435 182.068 158.621 181.455 158.621 180.828C158.621 179.986 158.287 179.179 157.692 178.584C157.097 177.989 156.29 177.655 155.448 177.655Z" fill="#313131"/>
</svg>
