<svg width="838" height="819" viewBox="0 0 838 819" fill="none" xmlns="http://www.w3.org/2000/svg">
<g filter="url(#filter0_d_7_3)">
<path fill-rule="evenodd" clip-rule="evenodd" d="M833.459 0.209249C833.049 2.12393 832.618 4.07504 832.167 6.06131L831.192 5.83961C831.642 3.85739 832.072 1.91043 832.481 0L833.459 0.209249ZM829.318 17.9366C828.353 21.769 827.318 25.7085 826.213 29.7475L825.248 29.4835C826.352 25.451 827.385 21.518 828.349 17.6923L829.318 17.9366ZM822.875 41.5036C821.75 45.3329 820.566 49.2382 819.323 53.2136L818.368 52.9151C819.61 48.9451 820.792 45.0454 821.916 41.2217L822.875 41.5036ZM815.573 64.8649C814.321 68.6468 813.019 72.4837 811.666 76.3709L810.721 76.0421C812.073 72.1597 813.374 68.3278 814.623 64.5508L815.573 64.8649ZM807.57 87.85C806.19 91.6274 804.764 95.4463 803.29 99.3028L802.356 98.9459C803.828 95.0939 805.253 91.2797 806.631 87.5069L807.57 87.85ZM798.837 110.707C797.352 114.43 795.824 118.184 794.253 121.964L793.33 121.581C794.899 117.804 796.425 114.055 797.908 110.337L798.837 110.707ZM789.49 133.202C787.884 136.917 786.237 140.655 784.549 144.412L783.637 144.002C785.323 140.249 786.968 136.516 788.572 132.805L789.49 133.202ZM779.487 155.469C777.78 159.129 776.035 162.804 774.251 166.492L773.35 166.057C775.133 162.373 776.876 158.702 778.581 155.047L779.487 155.469ZM768.839 177.476C767.032 181.078 765.188 184.689 763.307 188.308L762.42 187.846C764.299 184.232 766.14 180.625 767.945 177.027L768.839 177.476ZM757.595 199.103C755.674 202.669 753.717 206.241 751.723 209.815L750.85 209.327C752.841 205.758 754.796 202.191 756.714 198.629L757.595 199.103ZM745.708 220.41C743.678 223.924 741.612 227.438 739.511 230.949L738.653 230.436C740.752 226.929 742.814 223.419 744.842 219.91L745.708 220.41ZM733.172 241.36C731.037 244.806 728.867 248.248 726.662 251.684L725.821 251.143C728.023 247.712 730.19 244.275 732.322 240.834L733.172 241.36ZM719.98 261.913C717.737 265.286 715.46 268.651 713.149 272.006L712.325 271.439C714.634 268.088 716.908 264.728 719.147 261.359L719.98 261.913ZM706.132 282.01C703.775 285.31 701.385 288.597 698.96 291.871L698.156 291.276C700.577 288.007 702.965 284.724 705.318 281.429L706.132 282.01ZM691.609 301.617C689.134 304.837 686.625 308.043 684.082 311.231L683.3 310.607C685.839 307.424 688.344 304.223 690.816 301.007L691.609 301.617ZM676.388 320.696C673.794 323.827 671.166 326.939 668.504 330.031L667.747 329.378C670.404 326.292 673.028 323.184 675.618 320.058L676.388 320.696ZM660.459 339.192C657.747 342.22 655.001 345.225 652.221 348.206L651.49 347.524C654.265 344.548 657.006 341.548 659.714 338.525L660.459 339.192ZM643.808 357.046C640.976 359.96 638.11 362.848 635.211 365.709L634.508 364.997C637.403 362.141 640.264 359.258 643.091 356.349L643.808 357.046ZM626.427 374.191C623.474 376.981 620.487 379.742 617.467 382.472L616.796 381.73C619.811 379.005 622.792 376.249 625.74 373.464L626.427 374.191ZM608.312 390.559C605.237 393.213 602.129 395.835 598.987 398.422L598.351 397.65C601.487 395.068 604.59 392.451 607.658 389.802L608.312 390.559ZM589.468 406.072C586.271 408.579 583.04 411.051 579.774 413.486L579.176 412.684C582.435 410.254 585.66 407.787 588.851 405.285L589.468 406.072ZM569.898 420.659C566.58 423.007 563.227 425.316 559.84 427.585L559.283 426.754C562.663 424.49 566.009 422.186 569.321 419.843L569.898 420.659ZM549.617 434.243C546.18 436.418 542.709 438.552 539.204 440.643L538.692 439.784C542.189 437.698 545.653 435.569 549.082 433.398L549.617 434.243ZM528.651 446.747C525.104 448.735 521.524 450.678 517.909 452.577L517.444 451.691C521.051 449.797 524.623 447.858 528.162 445.874L528.651 446.747ZM267.754 452.818C263.802 452.322 259.827 452.215 255.835 452.477L255.77 451.479C259.823 451.214 263.862 451.322 267.879 451.826L267.754 452.818ZM244.015 454.294C240.219 455.204 236.411 456.422 232.593 457.933L232.225 457.003C236.083 455.477 239.937 454.243 243.782 453.322L244.015 454.294ZM290.316 460.174C286.692 458.22 283.043 456.648 279.373 455.44L279.685 454.49C283.414 455.717 287.117 457.312 290.791 459.293L290.316 460.174ZM507.036 458.096C503.389 459.884 499.708 461.626 495.994 463.32L495.579 462.41C499.285 460.72 502.957 458.982 506.596 457.198L507.036 458.096ZM221.718 462.997C218.288 464.83 214.854 466.883 211.419 469.144L210.87 468.308C214.327 466.033 217.787 463.964 221.247 462.115L221.718 462.997ZM305.144 470.484C303.555 469.119 301.959 467.837 300.358 466.635L300.959 465.835C302.578 467.051 304.19 468.347 305.795 469.725C307.323 471.037 308.829 472.36 310.312 473.694L309.644 474.437C308.166 473.109 306.666 471.791 305.144 470.484ZM484.82 468.225C482.941 469.018 481.053 469.799 479.157 470.568C477.297 471.322 475.452 472.078 473.621 472.835L473.239 471.911C475.072 471.153 476.92 470.396 478.782 469.641C480.673 468.874 482.556 468.095 484.431 467.304L484.82 468.225ZM201.661 476.114C198.566 478.496 195.472 481.036 192.383 483.725L191.727 482.971C194.83 480.27 197.939 477.716 201.052 475.321L201.661 476.114ZM462.81 477.398C459.226 478.942 455.701 480.491 452.234 482.047L451.825 481.134C455.296 479.577 458.826 478.025 462.415 476.48L462.81 477.398ZM326.561 491.085C323.889 488.204 321.128 485.359 318.276 482.554L318.978 481.841C321.84 484.657 324.612 487.513 327.294 490.405L326.561 491.085ZM441.485 486.974C437.966 488.622 434.51 490.276 431.117 491.936L430.677 491.038C434.076 489.376 437.537 487.719 441.061 486.068L441.485 486.974ZM183.523 491.853C180.684 494.588 177.851 497.441 175.025 500.406L174.301 499.716C177.136 496.742 179.979 493.878 182.829 491.133L183.523 491.853ZM420.507 497.246C417.036 499.024 413.635 500.808 410.302 502.597L409.829 501.716C413.168 499.924 416.575 498.137 420.051 496.356L420.507 497.246ZM341.902 509.237C339.509 506.124 337.025 503.04 334.448 499.991L335.212 499.346C337.799 502.407 340.293 505.502 342.695 508.628L341.902 509.237ZM399.935 508.302C396.539 510.218 393.219 512.139 389.975 514.065L389.464 513.205C392.715 511.276 396.041 509.351 399.443 507.431L399.935 508.302ZM166.846 509.315C164.235 512.263 161.632 515.301 159.039 518.422L158.27 517.783C160.87 514.654 163.479 511.609 166.098 508.652L166.846 509.315ZM355.473 528.701C353.38 525.379 351.193 522.08 348.911 518.807L349.732 518.235C352.022 521.52 354.217 524.833 356.319 528.168L355.473 528.701ZM379.863 520.233C376.536 522.319 373.295 524.409 370.139 526.503L369.586 525.67C372.75 523.571 375.998 521.476 379.332 519.386L379.863 520.233ZM151.486 527.777C149.029 530.904 146.583 534.103 144.148 537.366L143.346 536.768C145.786 533.498 148.238 530.294 150.699 527.159L151.486 527.777ZM360.433 533.138C357.191 535.423 354.047 537.711 350.998 540.002L350.398 539.202C353.454 536.906 356.607 534.612 359.857 532.32L360.433 533.138ZM367.202 549.387C365.424 545.88 363.551 542.387 361.581 538.912L362.451 538.419C364.429 541.907 366.309 545.414 368.094 548.935L367.202 549.387ZM341.846 547.113C338.721 549.626 335.709 552.14 332.807 554.653L332.153 553.897C335.064 551.376 338.085 548.854 341.219 546.334L341.846 547.113ZM137.044 547.111C134.741 550.343 132.449 553.629 130.169 556.966L129.343 556.401C131.627 553.06 133.922 549.768 136.229 546.531L137.044 547.111ZM376.946 571.042C375.503 567.391 373.964 563.743 372.326 560.104L373.238 559.694C374.882 563.347 376.427 567.009 377.876 570.674L376.946 571.042ZM324.157 562.445C321.279 565.146 318.524 567.843 315.891 570.537L315.176 569.838C317.82 567.134 320.584 564.426 323.473 561.716L324.157 562.445ZM123.452 566.993C121.259 570.329 119.08 573.707 116.913 577.125L116.069 576.59C118.238 573.168 120.421 569.784 122.616 566.443L123.452 566.993ZM307.877 579.137C305.225 582.127 302.719 585.11 300.355 588.082L299.572 587.46C301.948 584.473 304.465 581.477 307.129 578.473L307.877 579.137ZM384.637 593.496C383.54 589.73 382.346 585.955 381.051 582.177L381.997 581.853C383.297 585.646 384.495 589.436 385.597 593.216L384.637 593.496ZM110.551 587.335C108.458 590.749 106.38 594.196 104.316 597.672L103.456 597.161C105.522 593.681 107.603 590.23 109.698 586.812L110.551 587.335ZM293.371 597.407C291.079 600.667 288.954 603.912 286.99 607.137L286.136 606.617C288.112 603.372 290.249 600.109 292.553 596.832L293.371 597.407ZM390.205 616.611C389.468 612.759 388.632 608.883 387.694 604.99L388.666 604.755C389.608 608.664 390.447 612.556 391.187 616.423L390.205 616.611ZM98.2355 608.069C96.2363 611.538 94.2522 615.032 92.284 618.546L91.4115 618.057C93.3816 614.54 95.3678 611.043 97.3691 607.569L98.2355 608.069ZM281.298 617.286C279.477 620.836 277.847 624.358 276.4 627.848L275.476 627.465C276.934 623.95 278.575 620.403 280.408 616.83L281.298 617.286ZM393.527 640.141C393.173 636.246 392.716 632.308 392.155 628.336L393.145 628.196C393.709 632.185 394.167 636.139 394.523 640.05L393.527 640.141ZM86.4494 629.107C84.5305 632.628 82.6282 636.164 80.7432 639.714L79.86 639.245C81.7466 635.692 83.6507 632.152 85.5713 628.628L86.4494 629.107ZM272.415 638.793C271.223 642.597 270.245 646.355 269.471 650.06L268.492 649.856C269.273 646.118 270.259 642.328 271.461 638.494L272.415 638.793ZM75.1433 650.393C73.2954 653.961 71.4658 657.538 69.6551 661.12L68.7626 660.669C70.5747 657.084 72.4059 653.504 74.2553 649.933L75.1433 650.393ZM394.448 663.874C394.506 659.979 394.459 656.017 394.301 651.997L395.3 651.957C395.459 655.995 395.506 659.976 395.448 663.889L394.448 663.874ZM267.689 661.559C267.293 665.503 267.126 669.376 267.174 673.169L266.174 673.181C266.126 669.35 266.294 665.44 266.694 661.459L267.689 661.559ZM64.2648 671.911C62.4832 675.52 60.7217 679.13 58.981 682.739L58.0803 682.304C59.8223 678.693 61.5852 675.08 63.3681 671.468L64.2648 671.911ZM392.703 687.54C393.226 683.704 393.637 679.765 393.931 675.737L394.929 675.81C394.633 679.858 394.22 683.817 393.694 687.675L392.703 687.54ZM268 684.743C268.515 688.657 269.262 692.468 270.219 696.166L269.251 696.417C268.283 692.68 267.529 688.828 267.009 684.874L268 684.743ZM53.7909 693.621C52.0683 697.274 50.3681 700.921 48.691 704.557L47.7829 704.139C49.4611 700.499 51.1626 696.85 52.8864 693.194L53.7909 693.621ZM387.828 710.729C388.911 707.043 389.87 703.201 390.7 699.219L391.679 699.423C390.844 703.43 389.878 707.298 388.788 711.011L387.828 710.729ZM273.83 707.22C275.277 710.862 276.936 714.366 278.785 717.719L277.909 718.201C276.041 714.812 274.363 711.27 272.9 707.589L273.83 707.22ZM43.7017 715.498C42.0357 719.192 40.3949 722.872 38.7802 726.533L37.8652 726.129C39.481 722.466 41.1229 718.784 42.7901 715.087L43.7017 715.498ZM378.942 732.689C380.756 729.358 382.43 725.778 383.955 721.972L384.883 722.343C383.345 726.183 381.654 729.8 379.82 733.167L378.942 732.689ZM285.034 727.532C287.34 730.693 289.826 733.675 292.465 736.466L291.738 737.153C289.07 734.332 286.557 731.316 284.226 728.121L285.034 727.532ZM33.9573 737.59C32.359 741.296 30.7891 744.978 29.2486 748.631L28.3272 748.242C29.8687 744.586 31.4397 740.902 33.0391 737.194L33.9573 737.59ZM364.542 751.253C367.38 748.793 370.057 745.904 372.556 742.625L373.351 743.231C370.816 746.559 368.092 749.499 365.197 752.008L364.542 751.253ZM300.977 744.381C304.008 746.853 307.175 749.104 310.448 751.116L309.924 751.968C306.613 749.932 303.41 747.656 300.345 745.156L300.977 744.381ZM320.738 756.503C322.519 757.281 324.319 757.992 326.136 758.633C328.066 759.314 329.969 759.848 331.843 760.241L331.637 761.22C329.718 760.818 327.773 760.271 325.803 759.576C323.963 758.927 322.14 758.207 320.338 757.419L320.738 756.503ZM343.519 760.873C347.426 760.45 351.174 759.375 354.741 757.705L355.165 758.611C351.502 760.326 347.647 761.432 343.626 761.867L343.519 760.873ZM24.5917 759.803C23.0409 763.568 21.5237 767.295 20.0411 770.982L19.1133 770.608C20.5969 766.92 22.1152 763.189 23.6671 759.422L24.5917 759.803ZM15.6075 782.142C14.1151 785.946 12.6628 789.698 11.2521 793.392L10.3179 793.035C11.7297 789.339 13.1831 785.584 14.6766 781.777L15.6075 782.142ZM6.98756 804.715C6.29287 806.587 5.61002 808.441 4.93922 810.276L4 809.933C4.67137 808.096 5.35478 806.241 6.05004 804.367L6.98756 804.715Z" fill="black"/>
</g>
<defs>
<filter id="filter0_d_7_3" x="0" y="0" width="837.459" height="818.276" filterUnits="userSpaceOnUse" color-interpolation-filters="sRGB">
<feFlood flood-opacity="0" result="BackgroundImageFix"/>
<feColorMatrix in="SourceAlpha" type="matrix" values="0 0 0 0 0 0 0 0 0 0 0 0 0 0 0 0 0 0 127 0" result="hardAlpha"/>
<feOffset dy="4"/>
<feGaussianBlur stdDeviation="2"/>
<feComposite in2="hardAlpha" operator="out"/>
<feColorMatrix type="matrix" values="0 0 0 0 0 0 0 0 0 0 0 0 0 0 0 0 0 0 0.25 0"/>
<feBlend mode="normal" in2="BackgroundImageFix" result="effect1_dropShadow_7_3"/>
<feBlend mode="normal" in="SourceGraphic" in2="effect1_dropShadow_7_3" result="shape"/>
</filter>
</defs>
</svg>
