<svg width="568" height="318" viewBox="0 0 568 318" fill="none" xmlns="http://www.w3.org/2000/svg">
<path fill-rule="evenodd" clip-rule="evenodd" d="M182.216 1.51911C178.114 1.43653 174.033 1.62252 169.978 2.05849L169.871 1.06422C173.967 0.623848 178.09 0.435851 182.236 0.519317L182.216 1.51911ZM206.346 5.18181C202.351 4.03469 198.369 3.16761 194.403 2.56395L194.554 1.57533C198.562 2.18546 202.586 3.06174 206.622 4.22066L206.346 5.18181ZM157.901 4.0963C153.942 5.00415 150.011 6.13881 146.115 7.48233L145.789 6.53694C149.717 5.18244 153.682 4.0378 157.677 3.1216L157.901 4.0963ZM228.88 14.6727C225.208 12.6185 221.541 10.8231 217.881 9.27374L218.271 8.35287C221.965 9.91689 225.665 11.7285 229.369 13.8L228.88 14.6727ZM134.712 12.0382C131.027 13.7105 127.378 15.56 123.767 17.5705L123.281 16.6968C126.914 14.6738 130.588 12.8119 134.298 11.1276L134.712 12.0382ZM249.034 28.5952C245.779 25.9055 242.525 23.4364 239.272 21.179L239.842 20.3574C243.119 22.6314 246.396 25.1176 249.671 27.8244L249.034 28.5952ZM113.267 23.9308C109.872 26.1524 106.517 28.5082 103.205 30.9838L102.606 30.1828C105.934 27.6955 109.306 25.3277 112.719 23.094L113.267 23.9308ZM262.643 41.1595C261.158 39.6421 259.673 38.1733 258.188 36.7522L258.879 36.0296C260.373 37.4585 261.866 38.9351 263.357 40.4602C264.742 41.8755 266.101 43.2835 267.436 44.6844L266.712 45.3743C265.38 43.9766 264.024 42.5716 262.643 41.1595ZM312.718 38.9206C308.604 38.6231 304.678 38.5355 300.935 38.6442L300.906 37.6446C304.685 37.5349 308.645 37.6235 312.79 37.9232L312.718 38.9206ZM93.5657 38.6173C90.442 41.2303 87.362 43.9423 84.3288 46.7402L83.6508 46.0051C86.6952 43.1968 89.7874 40.4741 92.9241 37.8503L93.5657 38.6173ZM289.222 39.6991C285.173 40.3329 281.379 41.2315 277.827 42.3712L277.521 41.419C281.125 40.2627 284.97 39.3525 289.067 38.7111L289.222 39.6991ZM330.406 41.3009C328.378 40.9126 326.388 40.5678 324.435 40.2656L324.588 39.2774C326.553 39.5815 328.555 39.9282 330.594 40.3188C332.524 40.6883 334.448 41.1017 336.365 41.5577L336.133 42.5306C334.23 42.0779 332.321 41.6676 330.406 41.3009ZM358.416 49.8198C354.776 48.3065 351.11 46.9392 347.418 45.7268L347.73 44.7767C351.447 45.9975 355.137 47.3737 358.8 48.8964L358.416 49.8198ZM266.995 46.9604C263.459 48.8703 260.231 51.073 257.292 53.5321L256.651 52.7652C259.641 50.2631 262.925 48.0226 266.52 46.0806L266.995 46.9604ZM282.025 62.3722C279.595 59.5063 277.058 56.6066 274.411 53.6733L275.154 53.0034C277.807 55.9441 280.351 58.8515 282.788 61.7254L282.025 62.3722ZM379.425 60.289C376.008 58.3051 372.563 56.4417 369.091 54.7069L369.538 53.8124C373.029 55.5569 376.493 57.4303 379.927 59.4242L379.425 60.289ZM75.4718 55.2789C72.5897 58.1782 69.7557 61.1475 66.9728 64.1746L66.2366 63.4978C69.0279 60.4616 71.8709 57.4828 74.7626 54.5739L75.4718 55.2789ZM249.098 61.9195C246.658 64.964 244.504 68.2436 242.614 71.7191L241.736 71.2415C243.651 67.7176 245.838 64.388 248.318 61.2941L249.098 61.9195ZM399.06 73.1858C395.872 70.8491 392.656 68.6099 389.413 66.4754L389.963 65.6401C393.221 67.7842 396.45 70.0331 399.651 72.3793L399.06 73.1858ZM296.189 80.2937C294.009 77.3141 291.71 74.2931 289.287 71.231L290.072 70.6105C292.502 73.6822 294.809 76.7132 296.996 79.7033L296.189 80.2937ZM58.8118 73.3798C56.1422 76.4995 53.5265 79.6641 50.9674 82.8614L50.1867 82.2365C52.7523 79.031 55.3751 75.858 58.052 72.7297L58.8118 73.3798ZM417.376 87.9123C414.404 85.3118 411.404 82.7892 408.376 80.351L409.003 79.5721C412.042 82.0193 415.053 84.5507 418.034 87.1597L417.376 87.9123ZM237.811 82.4528C236.488 86.094 235.389 89.8778 234.496 93.7698L233.521 93.5462C234.422 89.6176 235.533 85.7943 236.871 82.1113L237.811 82.4528ZM308.846 99.2957C306.944 96.12 304.899 92.8896 302.705 89.6052L303.537 89.0498C305.739 92.3473 307.793 95.5915 309.704 98.7818L308.846 99.2957ZM43.425 92.5896C40.9455 95.8898 38.5275 99.2109 36.174 102.54L35.3575 101.963C37.7163 98.626 40.14 95.2971 42.6255 91.9889L43.425 92.5896ZM434.493 104.032C431.716 101.231 428.91 98.4919 426.076 95.8199L426.762 95.0923C429.605 97.7722 432.419 100.519 435.203 103.328L434.493 104.032ZM232.461 105.393C231.978 109.26 231.667 113.193 231.511 117.163L230.512 117.124C230.668 113.128 230.982 109.166 231.469 105.269L232.461 105.393ZM319.449 119.551C317.957 116.198 316.297 112.773 314.46 109.275L315.345 108.81C317.192 112.326 318.861 115.771 320.362 119.144L319.449 119.551ZM450.54 121.233C447.937 118.277 445.304 115.369 442.643 112.513L443.374 111.831C446.042 114.694 448.681 117.609 451.29 120.572L450.54 121.233ZM29.2077 112.692C26.9058 116.148 24.6768 119.599 22.5241 123.029L21.6771 122.498C23.8345 119.06 26.0684 115.602 28.3754 112.138L29.2077 112.692ZM231.494 128.989C231.63 132.923 231.901 136.864 232.294 140.785L231.299 140.884C230.904 136.944 230.631 132.98 230.494 129.023L231.494 128.989ZM465.631 139.29C463.184 136.212 460.706 133.169 458.198 130.166L458.966 129.525C461.479 132.534 463.962 135.583 466.413 138.668L465.631 139.29ZM327.071 141.026C326.151 137.494 325.032 133.86 323.697 130.124L324.638 129.788C325.983 133.55 327.111 137.213 328.038 140.774L327.071 141.026ZM16.1279 133.534C14.0017 137.135 11.9664 140.696 10.0261 144.2L9.15128 143.716C11.096 140.204 13.1359 136.635 15.2668 133.026L16.1279 133.534ZM479.861 158.036C477.555 154.86 475.217 151.708 472.848 148.586L473.645 147.981C476.019 151.11 478.361 154.267 480.67 157.449L479.861 158.036ZM330.409 163.564C330.31 159.935 329.977 156.158 329.385 152.235L330.374 152.086C330.972 156.048 331.308 159.866 331.409 163.536L330.409 163.564ZM233.834 152.511C234.471 156.442 235.22 160.322 236.065 164.119L235.089 164.337C234.24 160.52 233.487 156.622 232.847 152.671L233.834 152.511ZM4.20256 155.088C3.25442 156.926 2.33597 158.742 1.44791 160.532L0.552094 160.088C1.44251 158.293 2.36331 156.473 3.31382 154.63L4.20256 155.088ZM493.309 177.347C491.132 174.092 488.922 170.85 486.678 167.627L487.499 167.056C489.746 170.284 491.96 173.532 494.14 176.792L493.309 177.347ZM327.737 186.06C328.73 182.565 329.475 178.855 329.929 174.932L330.922 175.047C330.462 179.022 329.707 182.786 328.698 186.333L327.737 186.06ZM238.981 175.602C240.093 179.489 241.3 183.244 242.582 186.828L241.64 187.165C240.351 183.56 239.137 179.784 238.019 175.877L238.981 175.602ZM506.046 197.148C503.988 193.825 501.893 190.504 499.763 187.191L500.604 186.65C502.738 189.968 504.835 193.294 506.896 196.621L506.046 197.148ZM317.721 206.348C319.936 203.426 321.941 200.202 323.67 196.683L324.568 197.124C322.811 200.701 320.772 203.979 318.518 206.952L317.721 206.348ZM246.99 197.836C248.712 201.678 250.513 205.208 252.357 208.358L251.494 208.864C249.629 205.677 247.812 202.115 246.077 198.245L246.99 197.836ZM518.115 217.366C516.171 213.988 514.186 210.6 512.162 207.208L513.02 206.696C515.047 210.092 517.035 213.485 518.982 216.867L518.115 217.366ZM300.753 221.196C303.952 219.416 307.068 217.234 310.002 214.656L310.662 215.408C307.674 218.032 304.501 220.256 301.239 222.07L300.753 221.196ZM259.127 217.953C260.528 219.536 261.925 220.863 263.303 221.912C264.786 223.041 266.405 223.98 268.134 224.732L267.735 225.649C265.936 224.867 264.247 223.887 262.697 222.708C261.257 221.611 259.813 220.236 258.378 218.615L259.127 217.953ZM279.1 227.004C282.701 227.074 286.478 226.577 290.284 225.523L290.551 226.487C286.66 227.565 282.786 228.076 279.081 228.004L279.1 227.004ZM529.546 237.953C527.712 234.528 525.833 231.081 523.909 227.616L524.783 227.131C526.709 230.6 528.591 234.052 530.427 237.481L529.546 237.953ZM540.35 258.874C538.628 255.412 536.853 251.909 535.026 248.373L535.915 247.914C537.743 251.455 539.521 254.962 541.246 258.428L540.35 258.874ZM550.513 280.106C548.909 276.617 547.243 273.063 545.514 269.453L546.416 269.021C548.147 272.635 549.816 276.194 551.422 279.688L550.513 280.106ZM559.967 301.614C558.504 298.118 556.959 294.518 555.335 290.827L556.251 290.424C557.877 294.121 559.424 297.726 560.89 301.228L559.967 301.614ZM566.533 317.988C565.857 316.22 565.155 314.411 564.425 312.565L565.355 312.197C566.086 314.047 566.79 315.859 567.467 317.631L566.533 317.988Z" fill="black"/>
</svg>
